{
  "ffprobe": {
    "audio_streams": [
      {
        "avg_frame_rate": "0/0",
        "bit_rate": "9216000",
        "bits_per_raw_sample": "24",
        "bits_per_sample": 24,
        "channels": 8,
        "codec_long_name": "PCM signed 24-bit little-endian",
        "codec_name": "pcm_s24le",
        "codec_tag": "0x0000",
        "codec_tag_string": "[0][0][0][0]",
        "codec_time_base": "1/48000",
        "codec_type": "audio",
        "disposition": {
          "attached_pic": 0,
          "clean_effects": 0,
          "comment": 0,
          "default": 0,
          "dub": 0,
          "forced": 0,
          "hearing_impaired": 0,
          "karaoke": 0,
          "lyrics": 0,
          "original": 0,
          "timed_thumbnails": 0,
          "visual_impaired": 0
        },
        "duration": "14400.000000",
        "duration_ts": 691200000,
        "index": 1,
        "r_frame_rate": "0/0",
        "sample_fmt": "s32",
        "sample_rate": "48000",
        "start_pts": 0,
        "start_time": "0.000000",
        "tags": {
          "file_package_umid": "0x060A2B340101010501010D231300BC5D90DBF1805D54161EBC2F00D0280F7E18"
        },
        "time_base": "1/48000"
      },
      {
        "avg_frame_rate": "0/0",
        "bit_rate": "9216000",
        "bits_per_raw_sample": "24",
        "bits_per_sample": 24,
        "channels": 8,
        "codec_long_name": "PCM signed 24-bit little-endian",
        "codec_name": "pcm_s24le",
        "codec_tag": "0x0000",
        "codec_tag_string": "[0][0][0][0]",
        "codec_time_base": "1/48000",
        "codec_type": "audio",
        "disposition": {
          "attached_pic": 0,
          "clean_effects": 0,
          "comment": 0,
          "default": 0,
          "dub": 0,
          "forced": 0,
          "hearing_impaired": 0,
          "karaoke": 0,
          "lyrics": 0,
          "original": 0,
          "timed_thumbnails": 0,
          "visual_impaired": 0
        },
        "duration": "14400.000000",
        "duration_ts": 691200000,
        "index": 2,
        "r_frame_rate": "0/0",
        "sample_fmt": "s32",
        "sample_rate": "48000",
        "start_pts": 0,
        "start_time": "0.000000",
        "tags": {
          "file_package_umid": "0x060A2B340101010501010D231300BC5D90DBF1805D54161EBC2F00D0280F7E18"
        },
        "time_base": "1/48000"
      }
    ],
    "format": {
      "bit_rate": "132218407",
      "duration": "14400.000000",
      "filename": "/mnt/archive2/STOCKHOLMD/201807/990165001/990165001_original.mxf",
      "filename_extension": "mxf",
      "format_long_name": "MXF (Material eXchange Format)",
      "format_name": "mxf",
      "nb_programs": 0,
      "probe_score": 100,
      "size": "237993133486",
      "start_time": "0.000000",
      "streams_attachment_count": 0,
      "streams_audio_count": 2,
      "streams_count": 3,
      "streams_data_count": 0,
      "streams_image_count": 0,
      "streams_subtitle_count": 0,
      "streams_video_count": 1
    },
    "video_streams": [
      {
        "avg_frame_rate": "25/1",
        "bits_per_raw_sample": "10",
        "chroma_location": "left",
        "codec_long_name": "H.264 / AVC / MPEG-4 AVC / MPEG-4 part 10",
        "codec_name": "h264",
        "codec_tag": "0x0000",
        "codec_tag_string": "[0][0][0][0]",
        "codec_time_base": "1/50",
        "codec_type": "video",
        "coded_height": 1088,
        "coded_width": 1920,
        "color_primaries": "bt709",
        "color_range": "pc",
        "color_space": "bt709",
        "color_transfer": "bt709",
        "display_aspect_ratio": "16:9",
        "disposition": {
          "attached_pic": 0,
          "clean_effects": 0,
          "comment": 0,
          "default": 0,
          "dub": 0,
          "forced": 0,
          "hearing_impaired": 0,
          "karaoke": 0,
          "lyrics": 0,
          "original": 0,
          "timed_thumbnails": 0,
          "visual_impaired": 0
        },
        "duration": "14400.000000",
        "duration_ts": 360000,
        "field_order": "tt",
        "has_b_frames": 0,
        "height": 1080,
        "index": 0,
        "is_avc": "false",
        "level": 41,
        "nal_length_size": "0",
        "pix_fmt": "yuv422p10le",
        "profile": "High 4:2:2 Intra",
        "r_frame_rate": "25/1",
        "refs": 1,
        "sample_aspect_ratio": "1:1",
        "start_pts": 0,
        "start_time": "0.000000",
        "tags": {
          "file_package_umid": "0x060A2B340101010501010D231300BC5D90DBF1805D54161EBC2F00D0280F7E18"
        },
        "time_base": "1/25",
        "width": 1920
      }
    ]
  },
  "mediainfo": {
    "audio_streams": [
      {
        "BitDepth": 24,
        "BitRate": 9216000,
        "BitRate_Mode": "CBR",
        "Channels": 8,
        "CodecID": "0D01030102060100",
        "Delay": "6840.000",
        "Delay_DropFrame": "No",
        "Delay_Source": "Container",
        "Duration": "14400.000",
        "Format": "PCM",
        "Format_Settings_Endianness": "Little",
        "Format_Settings_Wrapping": "Frame (BWF)",
        "FrameCount": 360000,
        "FrameRate": "25.000",
        "ID": 3,
        "SamplesPerFrame": 1920,
        "SamplingCount": 691200000,
        "SamplingRate": 48000,
        "StreamOrder": 1,
        "StreamSize": 16588800000,
        "StreamSize_Proportion": "0.06970",
        "extra": {
          "BlockAlignment": 24,
          "Delay_SystemScheme1": 6840000,
          "Locked": "Yes"
        }
      },
      {
        "BitDepth": 24,
        "BitRate": 9216000,
        "BitRate_Mode": "CBR",
        "Channels": 8,
        "CodecID": "0D01030102060100",
        "Delay": "6840.000",
        "Delay_DropFrame": "No",
        "Delay_Source": "Container",
        "Duration": "14400.000",
        "Format": "PCM",
        "Format_Settings_Endianness": "Little",
        "Format_Settings_Wrapping": "Frame (BWF)",
        "FrameCount": 360000,
        "FrameRate": "25.000",
        "ID": 4,
        "SamplesPerFrame": 1920,
        "SamplingCount": 691200000,
        "SamplingRate": 48000,
        "StreamOrder": 2,
        "StreamSize": 16588800000,
        "StreamSize_Proportion": "0.06970",
        "extra": {
          "BlockAlignment": 24,
          "Delay_SystemScheme1": 6840000,
          "Locked": "Yes"
        }
      }
    ],
    "format": {
      "AudioCount": 2,
      "Duration": "14400.000",
      "Encoded_Application_CompanyName": "Omneon Inc.",
      "Encoded_Application_Name": "Omneon Media Subsystem",
      "Encoded_Application_Version": "7.8.0.0.1",
      "Encoded_Date": "2016-07-28 00:52:05.340",
      "Encoded_Library_Name": "Omneon Media Api (mqx)   ",
      "FileExtension": "mxf",
      "FileSize": 237993133486,
      "File_Modified_Date": "UTC 2018-07-17 14:02:15",
      "File_Modified_Date_Local": "2018-07-17 14:02:15",
      "FooterSize": 6875,
      "Format": "MXF",
      "Format_Commercial_IfAny": "AVC-Intra 100",
      "Format_Profile": "OP-1a",
      "Format_Settings": "Closed / Complete",
      "Format_Version": "1.3",
      "FrameCount": 360000,
      "FrameRate": "25.000",
      "OtherCount": 3,
      "OverallBitRate": 132218408,
      "StreamSize": 220333486,
      "VideoCount": 1,
      "filename": "/mnt/archive2/STOCKHOLMD/201807/990165001/990165001_original.mxf",
      "streams_attachment_count": 0,
      "streams_audio_count": 2,
      "streams_count": 3,
      "streams_data_count": 0,
      "streams_image_count": 0,
      "streams_other_count": 0,
      "streams_subtitle_count": 0,
      "streams_video_count": 1
    },
    "other_streams": [
      {
        "Format": "MXF TC",
        "ID": "1-Material",
        "TimeCode_FirstFrame": "01:54:00:00",
        "TimeCode_Settings": "Material Package",
        "TimeCode_Striped": "Yes",
        "Type": "Time code"
      },
      {
        "Format": "MXF TC",
        "ID": "1-Source",
        "TimeCode_FirstFrame": "00:00:00:00",
        "TimeCode_Settings": "Source Package",
        "TimeCode_Striped": "Yes",
        "Type": "Time code"
      },
      {
        "Format": "SMPTE TC",
        "MuxingMode": "System scheme 1",
        "TimeCode_FirstFrame": "01:54:00:00",
        "Type": "Time code"
      }
    ],
    "video_streams": [
      {
        "BitDepth": 10,
        "BitRate": 113664000,
        "ChromaSubsampling": "4:2:2",
        "CodecID": "0D01030102106101-0401020201323102",
        "ColorSpace": "YUV",
        "Delay": "6840.000",
        "DisplayAspectRatio": "1.778",
        "Duration": "14400.000",
        "Format": "AVC",
        "Format_Commercial_IfAny": "AVC-Intra 100",
        "Format_Level": "4.1",
        "Format_Profile": "High 4:2:2 Intra",
        "Format_Settings_CABAC": "No",
        "Format_Settings_GOP": "N=1",
        "Format_Settings_Wrapping": "Frame",
        "FrameCount": 360000,
        "FrameRate": "25.000",
        "Height": 1080,
        "ID": 2,
        "PixelAspectRatio": "1.000",
        "Sampled_Height": 1080,
        "Sampled_Width": 1920,
        "ScanOrder": "TFF",
        "ScanType": "MBAFF",
        "Standard": "Component",
        "Stored_Height": 1088,
        "StreamOrder": 0,
        "StreamSize": 204595200000,
        "Width": 1920,
        "colour_description_present": "Yes",
        "colour_description_present_Source": "Stream",
        "colour_primaries": "BT.709",
        "colour_primaries_Source": "Stream",
        "colour_range": "Full",
        "colour_range_Source": "Stream",
        "extra": {
          "Delay_SystemScheme1": 6840000
        },
        "matrix_coefficients": "BT.709",
        "matrix_coefficients_Source": "Stream",
        "transfer_characteristics": "BT.709",
        "transfer_characteristics_Source": "Stream"
      }
    ]
  }
}
